<?xml version="1.0" encoding="UTF-8"?>
<svg width="752pt" height="752pt" version="1.1" viewBox="0 0 752 752" xmlns="http://www.w3.org/2000/svg">
 <path d="m565.91 494.87-2.3672-4.7344c-6.6289-15.629-88.086-39.309-94.715-39.781l-5.2109 0.47266c-9.9453 1.8945-20.836 10.891-42.148 29.363-4.2617 3.7891-9.9453 4.7344-15.156 1.8945-27.941-15.629-62.039-46.883-79.09-65.828-18.469-20.363-40.727-53.988-51.148-80.98-1.8945-5.2109 0-10.891 3.7891-14.68 24.152-21.785 34.57-32.203 35.52-43.57 0.47266-6.6289-13.734-90.453-28.414-98.504l-4.2617-2.8398c-9.4727-6.1562-23.68-15.156-39.309-11.84-3.7891 0.94531-7.5781 2.3672-10.891 4.2617-10.418 6.625-36.465 24.621-48.305 47.824-7.1016 14.684-10.418 147.76 89.035 260 98.504 111.29 220.21 116.03 238.21 112.24h0.47266l1.4219-0.47266c24.625-8.9961 45.465-32.203 53.516-42.148 14.68-17.523 4.7344-38.832-0.94922-50.672z" fill="#fff"/>
</svg>
