<?xml version="1.0" encoding="UTF-8"?>
<svg width="752pt" height="752pt" version="1.1" viewBox="0 0 752 752" xmlns="http://www.w3.org/2000/svg">
 <path d="m375.98 182.02c-33.18 0-65 13.168-88.473 36.617-23.473 23.449-36.676 55.258-36.707 88.438 0 69.059 117.14 257.26 117.14 257.26 4.5 7.5391 11.828 7.5391 16.273 0 0 0 116.98-188 116.98-257.26h0.003906c-0.011719-33.195-13.211-65.023-36.699-88.477-23.484-23.457-55.332-36.613-88.523-36.578zm0 151.9c-11.625 0-22.777-4.6172-30.996-12.836-8.2227-8.2227-12.84-19.371-12.84-30.996 0-11.629 4.6172-22.777 12.84-31 8.2188-8.2188 19.371-12.836 30.996-12.836s22.773 4.6172 30.996 12.84c8.2188 8.2227 12.836 19.371 12.836 30.996 0.011719 11.629-4.6055 22.785-12.828 31.008s-19.375 12.836-31.004 12.824z" fill="#fff" fill-rule="evenodd"/>
</svg>
